<svg width="534" height="140" viewBox="0 0 534 140" xmlns="http://www.w3.org/2000/svg" role="img" aria-label="VibeForge">
<defs><linearGradient id="g04" x1="0" y1="4" x2="100.0" y2="104.0" gradientUnits="userSpaceOnUse"><stop stop-color="#6D5EF7"/><stop offset="1" stop-color="#4F39F6"/></linearGradient></defs>
<rect x="0" y="4" width="100.0" height="100.0" rx="23.4375" fill="url(#g04)"/>
<path d="M15.62 27.44 L23.44 20.41 L39.84 20.41 L50.00 47.75 L60.16 20.41 L76.56 20.41 L84.38 27.44 L57.03 73.53 L50.00 86.03 L42.97 73.53 Z M50.00 61.03 L58.59 75.88 L50.00 70.41 L41.41 75.88 Z" fill="#FFFFFF" fill-rule="evenodd"/>
<path d="M38.28 90.72 L61.72 90.72 L64.06 94.62 L61.72 96.19 L38.28 96.19 L35.94 94.62 Z" fill="#FFFFFF"/>
<path d="M128.00 4.00 L142.00 4.00 L151.00 37.00 L160.00 4.00 L174.00 4.00 L158.00 54.00 L144.00 54.00 Z" fill="#18181B"/>
<path d="M180.00 4.00 L192.00 4.00 L192.00 54.00 L180.00 54.00 Z" fill="#18181B"/>
<path d="M198.00 4.00 L210.00 4.00 L210.00 54.00 L198.00 54.00 Z" fill="#18181B"/>
<path d="M210.00 4.00 L232.00 4.00 L238.00 10.00 L238.00 20.00 L232.00 26.00 L210.00 26.00 Z M210.00 13.00 L230.00 13.00 L227.00 17.00 L227.00 16.00 L228.00 15.00 L210.00 15.00 Z" fill="#18181B" fill-rule="evenodd"/>
<path d="M210.00 31.00 L233.00 31.00 L239.00 37.00 L239.00 48.00 L233.00 54.00 L210.00 54.00 Z M210.00 40.00 L230.00 40.00 L228.00 44.00 L228.00 43.00 L229.00 43.00 L210.00 43.00 Z" fill="#18181B" fill-rule="evenodd"/>
<path d="M246.00 4.00 L258.00 4.00 L258.00 54.00 L246.00 54.00 Z" fill="#18181B"/>
<path d="M258.00 4.00 L275.00 4.00 L282.00 11.00 L282.00 16.00 L258.00 16.00 Z" fill="#18181B"/>
<path d="M258.00 23.00 L278.00 23.00 L278.00 34.00 L258.00 34.00 Z" fill="#18181B"/>
<path d="M258.00 42.00 L282.00 42.00 L282.00 47.00 L275.00 54.00 L258.00 54.00 Z" fill="#18181B"/>
<path d="M299.00 4.00 L311.00 4.00 L311.00 54.00 L299.00 54.00 Z" fill="#4F39F6"/>
<path d="M311.00 4.00 L327.00 4.00 L334.00 11.00 L334.00 16.00 L311.00 16.00 Z" fill="#4F39F6"/>
<path d="M311.00 24.00 L329.00 24.00 L329.00 35.00 L311.00 35.00 Z" fill="#4F39F6"/>
<path d="M348.00 4.00 L376.00 4.00 L383.00 11.00 L383.00 47.00 L376.00 54.00 L348.00 54.00 L341.00 47.00 L341.00 11.00 Z M357.00 16.00 L367.00 16.00 L371.00 19.00 L371.00 39.00 L367.00 42.00 L357.00 42.00 L353.00 39.00 L353.00 19.00 Z" fill="#4F39F6" fill-rule="evenodd"/>
<path d="M390.00 4.00 L402.00 4.00 L402.00 54.00 L390.00 54.00 Z" fill="#4F39F6"/>
<path d="M402.00 4.00 L422.00 4.00 L429.00 11.00 L429.00 25.00 L422.00 28.00 L402.00 28.00 Z" fill="#4F39F6"/>
<path d="M402.00 26.00 L413.00 26.00 L429.00 54.00 L417.00 54.00 L402.00 34.00 Z" fill="#4F39F6"/>
<path d="M443.00 4.00 L472.00 4.00 L479.00 11.00 L479.00 47.00 L472.00 54.00 L443.00 54.00 L436.00 47.00 L436.00 11.00 Z M451.00 16.00 L464.00 16.00 L467.00 18.00 L467.00 40.00 L464.00 42.00 L451.00 42.00 L448.00 40.00 L448.00 18.00 Z M466.00 15.00 L480.50 15.00 L480.50 24.00 L466.00 24.00 Z" fill="#4F39F6" fill-rule="evenodd"/>
<path d="M459.00 30.00 L467.00 30.00 L467.00 41.00 L459.00 41.00 Z" fill="#4F39F6"/>
<path d="M486.00 4.00 L498.00 4.00 L498.00 54.00 L486.00 54.00 Z" fill="#4F39F6"/>
<path d="M498.00 4.00 L515.00 4.00 L522.00 11.00 L522.00 16.00 L498.00 16.00 Z" fill="#4F39F6"/>
<path d="M498.00 23.00 L518.00 23.00 L518.00 34.00 L498.00 34.00 Z" fill="#4F39F6"/>
<path d="M498.00 42.00 L522.00 42.00 L522.00 47.00 L515.00 54.00 L498.00 54.00 Z" fill="#4F39F6"/>
<text x="128" y="128" font-family="ui-monospace,SFMono-Regular,Menlo,monospace" font-size="12" letter-spacing="3" fill="#8A8A94">IDEA → FORGED SOFTWARE</text>
</svg>