<svg width="524" height="108" viewBox="0 0 524 108" xmlns="http://www.w3.org/2000/svg" role="img" aria-label="VibeForge">
<defs><linearGradient id="g04" x1="0" y1="4" x2="100.0" y2="104.0" gradientUnits="userSpaceOnUse"><stop stop-color="#6D5EF7"/><stop offset="1" stop-color="#4F39F6"/></linearGradient></defs>
<rect x="0" y="4" width="100.0" height="100.0" rx="23.4375" fill="url(#g04)"/>
<path d="M15.62 27.44 L23.44 20.41 L39.84 20.41 L50.00 47.75 L60.16 20.41 L76.56 20.41 L84.38 27.44 L57.03 73.53 L50.00 86.03 L42.97 73.53 Z M50.00 61.03 L58.59 75.88 L50.00 70.41 L41.41 75.88 Z" fill="#FFFFFF" fill-rule="evenodd"/>
<path d="M38.28 90.72 L61.72 90.72 L64.06 94.62 L61.72 96.19 L38.28 96.19 L35.94 94.62 Z" fill="#FFFFFF"/>
<path d="M128.00 4.00 L142.00 4.00 L151.00 37.00 L160.00 4.00 L174.00 4.00 L158.00 54.00 L144.00 54.00 Z" fill="#18181B"/>
<path d="M180.00 4.00 L192.00 4.00 L192.00 54.00 L180.00 54.00 Z" fill="#18181B"/>
<path d="M198.00 4.00 L210.00 4.00 L210.00 54.00 L198.00 54.00 Z" fill="#18181B"/>
<path d="M210.00 4.00 L232.00 4.00 L238.00 10.00 L238.00 20.00 L232.00 26.00 L210.00 26.00 Z M210.00 13.00 L230.00 13.00 L227.00 17.00 L227.00 16.00 L228.00 15.00 L210.00 15.00 Z" fill="#18181B" fill-rule="evenodd"/>
<path d="M210.00 31.00 L233.00 31.00 L239.00 37.00 L239.00 48.00 L233.00 54.00 L210.00 54.00 Z M210.00 40.00 L230.00 40.00 L228.00 44.00 L228.00 43.00 L229.00 43.00 L210.00 43.00 Z" fill="#18181B" fill-rule="evenodd"/>
<path d="M246.00 4.00 L258.00 4.00 L258.00 54.00 L246.00 54.00 Z" fill="#18181B"/>
<path d="M258.00 4.00 L275.00 4.00 L282.00 11.00 L282.00 16.00 L258.00 16.00 Z" fill="#18181B"/>
<path d="M258.00 23.00 L278.00 23.00 L278.00 34.00 L258.00 34.00 Z" fill="#18181B"/>
<path d="M258.00 42.00 L282.00 42.00 L282.00 47.00 L275.00 54.00 L258.00 54.00 Z" fill="#18181B"/>
<path d="M289.00 4.00 L301.00 4.00 L301.00 54.00 L289.00 54.00 Z" fill="#18181B"/>
<path d="M301.00 4.00 L317.00 4.00 L324.00 11.00 L324.00 16.00 L301.00 16.00 Z" fill="#18181B"/>
<path d="M301.00 24.00 L319.00 24.00 L319.00 35.00 L301.00 35.00 Z" fill="#18181B"/>
<path d="M338.00 4.00 L366.00 4.00 L373.00 11.00 L373.00 47.00 L366.00 54.00 L338.00 54.00 L331.00 47.00 L331.00 11.00 Z M347.00 16.00 L357.00 16.00 L361.00 19.00 L361.00 39.00 L357.00 42.00 L347.00 42.00 L343.00 39.00 L343.00 19.00 Z" fill="#18181B" fill-rule="evenodd"/>
<path d="M380.00 4.00 L392.00 4.00 L392.00 54.00 L380.00 54.00 Z" fill="#18181B"/>
<path d="M392.00 4.00 L412.00 4.00 L419.00 11.00 L419.00 25.00 L412.00 28.00 L392.00 28.00 Z" fill="#18181B"/>
<path d="M392.00 26.00 L403.00 26.00 L419.00 54.00 L407.00 54.00 L392.00 34.00 Z" fill="#18181B"/>
<path d="M433.00 4.00 L462.00 4.00 L469.00 11.00 L469.00 47.00 L462.00 54.00 L433.00 54.00 L426.00 47.00 L426.00 11.00 Z M441.00 16.00 L454.00 16.00 L457.00 18.00 L457.00 40.00 L454.00 42.00 L441.00 42.00 L438.00 40.00 L438.00 18.00 Z M456.00 15.00 L470.50 15.00 L470.50 24.00 L456.00 24.00 Z" fill="#18181B" fill-rule="evenodd"/>
<path d="M449.00 30.00 L457.00 30.00 L457.00 41.00 L449.00 41.00 Z" fill="#18181B"/>
<path d="M476.00 4.00 L488.00 4.00 L488.00 54.00 L476.00 54.00 Z" fill="#18181B"/>
<path d="M488.00 4.00 L505.00 4.00 L512.00 11.00 L512.00 16.00 L488.00 16.00 Z" fill="#18181B"/>
<path d="M488.00 23.00 L508.00 23.00 L508.00 34.00 L488.00 34.00 Z" fill="#18181B"/>
<path d="M488.00 42.00 L512.00 42.00 L512.00 47.00 L505.00 54.00 L488.00 54.00 Z" fill="#18181B"/>

</svg>