<svg width="796" height="100" viewBox="0 0 796 100" xmlns="http://www.w3.org/2000/svg" role="img" aria-label="VibeForge">
<path d="M0.0 0.0 L28.0 0.0 L46.0 66.0 L64.0 0.0 L92.0 0.0 L60.0 100.0 L32.0 100.0 Z" fill="#FFFFFF"/>
<path d="M104.0 0.0 L128.0 0.0 L128.0 100.0 L104.0 100.0 Z" fill="#FFFFFF"/>
<path d="M140.0 0.0 L164.0 0.0 L164.0 100.0 L140.0 100.0 Z" fill="#FFFFFF"/>
<path d="M164.0 0.0 L208.0 0.0 L220.0 12.0 L220.0 32.0 L208.0 44.0 L164.0 44.0 Z M164.0 18.0 L204.0 18.0 L198.0 26.0 L198.0 24.0 L200.0 22.0 L164.0 22.0 Z" fill="#FFFFFF" fill-rule="evenodd"/>
<path d="M164.0 54.0 L210.0 54.0 L222.0 66.0 L222.0 88.0 L210.0 100.0 L164.0 100.0 Z M164.0 72.0 L204.0 72.0 L200.0 80.0 L200.0 78.0 L202.0 78.0 L164.0 78.0 Z" fill="#FFFFFF" fill-rule="evenodd"/>
<path d="M236.0 0.0 L260.0 0.0 L260.0 100.0 L236.0 100.0 Z" fill="#FFFFFF"/>
<path d="M260.0 0.0 L294.0 0.0 L308.0 14.0 L308.0 24.0 L260.0 24.0 Z" fill="#FFFFFF"/>
<path d="M260.0 38.0 L300.0 38.0 L300.0 60.0 L260.0 60.0 Z" fill="#FFFFFF"/>
<path d="M260.0 76.0 L308.0 76.0 L308.0 86.0 L294.0 100.0 L260.0 100.0 Z" fill="#FFFFFF"/>
<path d="M342.0 0.0 L366.0 0.0 L366.0 100.0 L342.0 100.0 Z" fill="#9686FF"/>
<path d="M366.0 0.0 L398.0 0.0 L412.0 14.0 L412.0 24.0 L366.0 24.0 Z" fill="#9686FF"/>
<path d="M366.0 40.0 L402.0 40.0 L402.0 62.0 L366.0 62.0 Z" fill="#9686FF"/>
<path d="M440.0 0.0 L496.0 0.0 L510.0 14.0 L510.0 86.0 L496.0 100.0 L440.0 100.0 L426.0 86.0 L426.0 14.0 Z M458.0 24.0 L478.0 24.0 L486.0 30.0 L486.0 70.0 L478.0 76.0 L458.0 76.0 L450.0 70.0 L450.0 30.0 Z" fill="#9686FF" fill-rule="evenodd"/>
<path d="M524.0 0.0 L548.0 0.0 L548.0 100.0 L524.0 100.0 Z" fill="#9686FF"/>
<path d="M548.0 0.0 L588.0 0.0 L602.0 14.0 L602.0 42.0 L588.0 48.0 L548.0 48.0 Z" fill="#9686FF"/>
<path d="M548.0 44.0 L570.0 44.0 L602.0 100.0 L578.0 100.0 L548.0 60.0 Z" fill="#9686FF"/>
<path d="M630.0 0.0 L688.0 0.0 L702.0 14.0 L702.0 86.0 L688.0 100.0 L630.0 100.0 L616.0 86.0 L616.0 14.0 Z M646.0 24.0 L672.0 24.0 L678.0 28.0 L678.0 72.0 L672.0 76.0 L646.0 76.0 L640.0 72.0 L640.0 28.0 Z M676.0 22.0 L705.0 22.0 L705.0 40.0 L676.0 40.0 Z" fill="#9686FF" fill-rule="evenodd"/>
<path d="M662.0 52.0 L678.0 52.0 L678.0 74.0 L662.0 74.0 Z" fill="#9686FF"/>
<path d="M716.0 0.0 L740.0 0.0 L740.0 100.0 L716.0 100.0 Z" fill="#9686FF"/>
<path d="M740.0 0.0 L774.0 0.0 L788.0 14.0 L788.0 24.0 L740.0 24.0 Z" fill="#9686FF"/>
<path d="M740.0 38.0 L780.0 38.0 L780.0 60.0 L740.0 60.0 Z" fill="#9686FF"/>
<path d="M740.0 76.0 L788.0 76.0 L788.0 86.0 L774.0 100.0 L740.0 100.0 Z" fill="#9686FF"/>
</svg>